<?xml version="1.0" encoding="utf-8"?>
<!-- Generator: Adobe Illustrator 26.0.1, SVG Export Plug-In . SVG Version: 6.00 Build 0)  -->
<svg version="1.1" id="Layer_1" xmlns="http://www.w3.org/2000/svg" xmlns:xlink="http://www.w3.org/1999/xlink" x="0px" y="0px"
	 viewBox="0 0 56.7 56.7" style="enable-background:new 0 0 56.7 56.7;" xml:space="preserve">
<style type="text/css">
	.st0{fill:#FFFBF0;}
</style>
<g>
	<path class="st0" d="M39.8,27.2c-3.2,0-3.7,3.2-3.7,3.2H43C43,30.4,43.1,27.2,39.8,27.2z"/>
	<path class="st0" d="M24.3,30.4h-6.1V36h5.4c0.1,0,0.2,0,0.4,0c0.9,0,2.5-0.3,2.5-2.7C26.5,30.4,24.3,30.4,24.3,30.4z"/>
	<path class="st0" d="M30,4.7c-13.8,0-25,11.2-25,25s11.2,25,25,25c13.8,0,25-11.2,25-25C55,15.9,43.8,4.7,30,4.7z M35.3,20.1h8.6
		v2.6h-8.6V20.1z M30.9,33.6c0,6.4-6.6,6.2-6.6,6.2h-6.1H18h-4.6V18.9H18h0.2h6.1c3.3,0,5.9,1.8,5.9,5.6s-3.2,4-3.2,4
		C31.2,28.4,30.9,33.6,30.9,33.6z M47,33.2H36.2c0,3.9,3.7,3.6,3.7,3.6c3.5,0,3.3-2.2,3.3-2.2h3.7c0,6-7.1,5.5-7.1,5.5
		c-8.6,0-8-8-8-8s0-8,8-8C48.2,24.2,47,33.2,47,33.2z"/>
	<path class="st0" d="M25.8,24.7c0-2.2-1.5-2.2-1.5-2.2h-0.8h-5.3v4.7h5.7C24.9,27.2,25.8,26.9,25.8,24.7z"/>
</g>
</svg>
