<?xml version="1.0" encoding="utf-8"?>
<!-- Generator: Adobe Illustrator 26.0.1, SVG Export Plug-In . SVG Version: 6.00 Build 0)  -->
<svg version="1.1" id="Layer_1" xmlns="http://www.w3.org/2000/svg" xmlns:xlink="http://www.w3.org/1999/xlink" x="0px" y="0px"
	 viewBox="0 0 75 75" style="enable-background:new 0 0 75 75;" xml:space="preserve">
<style type="text/css">
	.st0{fill:#FFFBF0;}
</style>
<g>
	<path class="st0" d="M56.8,34c-3.8,0-4.4,3.8-4.4,3.8h8.3C60.6,37.8,60.7,34,56.8,34z"/>
	<path class="st0" d="M38.2,37.8h-7.3v6.8h6.5c0.1,0,0.2,0,0.5,0c1.1,0,3-0.3,3-3.3C40.8,37.8,38.2,37.8,38.2,37.8z"/>
	<path class="st0" d="M45.1,7C28.4,7,15,20.4,15,37s13.4,30,30.1,30S75,53.5,75,37S61.6,7,45.1,7z M51.4,25.5h10.4v3.1H51.4V25.5z
		 M46.1,41.7c0,7.7-7.9,7.4-7.9,7.4h-7.3h-0.2h-5.6V24h5.5h0.3h7.3c3.9,0,7.1,2.1,7.1,6.8s-3.9,4.8-3.9,4.8
		C46.4,35.4,46.1,41.7,46.1,41.7z M65.4,41.1H52.5c0,4.6,4.4,4.3,4.4,4.3c4.2,0,3.9-2.6,3.9-2.6h4.4c0,7.2-8.6,6.5-8.6,6.5
		c-10.4,0-9.6-9.6-9.6-9.6s0-9.6,9.6-9.6C66.9,30.4,65.4,41.1,65.4,41.1z"/>
	<path class="st0" d="M40,31c0-2.6-1.8-2.6-1.8-2.6h-1h-6.3V34h6.9C38.9,34,40,33.6,40,31z"/>
</g>
</svg>
