<?xml version="1.0" encoding="utf-8"?>
<!-- Generator: Adobe Illustrator 26.0.1, SVG Export Plug-In . SVG Version: 6.00 Build 0)  -->
<svg version="1.1" id="Layer_1" xmlns="http://www.w3.org/2000/svg" xmlns:xlink="http://www.w3.org/1999/xlink" x="0px" y="0px"
	 viewBox="0 0 56.7 56.7" style="enable-background:new 0 0 56.7 56.7;" xml:space="preserve">
<style type="text/css">
	.st0{fill:#FFFBF0;}
</style>
<g>
	<path class="st0" d="M39.5,25.5c-3.6,0-4.2,3.6-4.2,3.6h7.8C43.1,29.1,43.2,25.5,39.5,25.5z"/>
	<path class="st0" d="M21.9,29.1H15v6.4h6.1c0.1,0,0.2,0,0.5,0c1,0,2.8-0.3,2.8-3.1C24.4,29.1,21.9,29.1,21.9,29.1z"/>
	<path class="st0" d="M28.4,0C12.7,0,0,12.7,0,28.4s12.7,28.4,28.4,28.4S56.7,44,56.7,28.4S44,0,28.4,0z M34.4,17.5h9.8v2.9h-9.8
		C34.4,20.4,34.4,17.5,34.4,17.5z M29.4,32.8c0,7.3-7.5,7-7.5,7H15h-0.2H9.5V16.1h5.2H15h6.9c3.7,0,6.7,2,6.7,6.4S24.9,27,24.9,27
		C29.7,26.9,29.4,32.8,29.4,32.8z M47.6,32.3H35.4c0,4.4,4.2,4.1,4.2,4.1c4,0,3.7-2.5,3.7-2.5h4.2c0,6.8-8.1,6.2-8.1,6.2
		c-9.8,0-9.1-9.1-9.1-9.1s0-9.1,9.1-9.1C49,22.1,47.6,32.3,47.6,32.3z"/>
	<path class="st0" d="M23.6,22.7c0-2.5-1.7-2.5-1.7-2.5H21h-6v5.3h6.5C22.6,25.5,23.6,25.2,23.6,22.7z"/>
</g>
</svg>
