<?xml version="1.0" encoding="utf-8"?>
<!-- Generator: Adobe Illustrator 26.0.1, SVG Export Plug-In . SVG Version: 6.00 Build 0)  -->
<svg version="1.1" id="Layer_1" xmlns="http://www.w3.org/2000/svg" xmlns:xlink="http://www.w3.org/1999/xlink" x="0px" y="0px"
	 viewBox="0 0 75 75" style="enable-background:new 0 0 75 75;" xml:space="preserve">
<style type="text/css">
	.st0{fill-rule:evenodd;clip-rule:evenodd;fill:#FFFBF0;}
</style>
<path class="st0" d="M46.8,51.6V39.9c0-6.3-3.4-9.2-7.8-9.2c-3.6,0-5.2,2.1-6.1,3.4v-2.9h-6.8c0.1,1.9,0,20.4,0,20.4H33V40.1
	c0-0.6,0-1.2,0.3-1.7c0.4-1.2,1.5-2.5,3.5-2.5c2.4,0,3.5,1.9,3.5,4.6v10.9L46.8,51.6L46.8,51.6z M19,28.4c2.4,0,3.9-1.5,3.9-3.5
	c0-2.1-1.4-3.5-3.9-3.5s-3.9,1.5-3.9,3.5C15.1,26.8,16.7,28.4,19,28.4L19,28.4z M30,67.5c-16.6,0-30-13.4-30-30s13.4-30,30-30
	s30,13.4,30,30S46.6,67.5,30,67.5z M22.3,51.6V31.2h-6.7v20.4H22.3z"/>
</svg>
