<?xml version="1.0" encoding="utf-8"?>
<!-- Generator: Adobe Illustrator 26.0.1, SVG Export Plug-In . SVG Version: 6.00 Build 0)  -->
<svg version="1.1" id="Layer_1" xmlns="http://www.w3.org/2000/svg" xmlns:xlink="http://www.w3.org/1999/xlink" x="0px" y="0px"
	 viewBox="0 0 67 67" style="enable-background:new 0 0 67 67;" xml:space="preserve">
<style type="text/css">
	.st0{fill-rule:evenodd;clip-rule:evenodd;fill:#FFFBF0;}
</style>
<path class="st0" d="M52.3,49.3V36.2c0-7-3.8-10.3-8.7-10.3c-4,0-5.8,2.3-6.8,3.8v-3.2h-7.6c0.1,2.1,0,22.8,0,22.8h7.6V36.4
	c0-0.7,0-1.3,0.3-1.9c0.5-1.3,1.7-2.8,3.9-2.8c2.7,0,3.9,2.1,3.9,5.1V49L52.3,49.3L52.3,49.3z M21.2,23.3c2.7,0,4.3-1.7,4.3-3.9
	c0-2.3-1.6-3.9-4.3-3.9s-4.3,1.7-4.3,3.9C16.9,21.6,18.6,23.3,21.2,23.3L21.2,23.3z M33.5,67C15,67,0,52,0,33.5S15,0,33.5,0
	S67,15,67,33.5S52,67,33.5,67z M24.9,49.3V26.5h-7.5v22.8H24.9z"/>
</svg>
