<?xml version="1.0" encoding="utf-8"?>
<!-- Generator: Adobe Illustrator 26.0.1, SVG Export Plug-In . SVG Version: 6.00 Build 0)  -->
<svg version="1.1" id="Layer_1" xmlns="http://www.w3.org/2000/svg" xmlns:xlink="http://www.w3.org/1999/xlink" x="0px" y="0px"
	 viewBox="0 0 67 67" style="enable-background:new 0 0 67 67;" xml:space="preserve">
<style type="text/css">
	.st0{fill-rule:evenodd;clip-rule:evenodd;fill:#FFFBF0;}
</style>
<path class="st0" d="M48,45.8V36c0-5.2-2.8-7.7-6.5-7.7c-3,0-4.3,1.7-5.1,2.8v-2.4h-5.7c0.1,1.6,0,17,0,17h5.7v-9.5
	c0-0.5,0-1,0.2-1.4c0.4-1,1.3-2.1,2.9-2.1c2,0,2.9,1.6,2.9,3.8v9.1L48,45.8L48,45.8z M24.8,26.4c2,0,3.2-1.3,3.2-2.9
	c0-1.7-1.2-2.9-3.2-2.9s-3.2,1.3-3.2,2.9C21.6,25.1,22.9,26.4,24.8,26.4L24.8,26.4z M34,59C20.2,59,9,47.8,9,34C9,20.2,20.2,9,34,9
	s25,11.2,25,25C59,47.8,47.8,59,34,59z M27.6,45.8v-17H22v17H27.6z"/>
</svg>
